<?xml version="1.0" encoding="UTF-8"?>
<svg version="1.1" xmlns="http://www.w3.org/2000/svg" width="225" height="225">
<path d="M0 0 C74.25 0 148.5 0 225 0 C225 74.25 225 148.5 225 225 C150.75 225 76.5 225 0 225 C0 150.75 0 76.5 0 0 Z " fill="#3096F2" transform="translate(0,0)"/>
<path d="M0 0 C0.66 0 1.32 0 2 0 C2.3810791 0.66193359 2.7621582 1.32386719 3.15478516 2.00585938 C4.97750122 5.17097015 6.80097008 8.33564627 8.625 11.5 C8.96290558 12.08622131 9.30081116 12.67244263 9.6489563 13.27642822 C14.3855068 21.49146796 19.14840099 29.6904478 23.9375 37.875 C29.35970518 47.1455695 34.70324078 56.45936815 40.02023315 65.79046631 C45.19005187 74.86123131 50.42287229 83.89324759 55.69995117 92.90209961 C60.64384768 101.35597296 65.49947379 109.85871312 70.34130859 118.37127686 C74.96518717 126.49840575 79.6727425 134.55708023 84.59375 142.5078125 C86 145 86 145 86 147 C82.16944228 147.38062339 78.3437223 147.60914027 74.5 147.8125 C73.42234375 147.92142578 72.3446875 148.03035156 71.234375 148.14257812 C67.76365511 148.28013714 65.28242037 148.16323102 62 147 C58.88665019 143.6356376 56.89586583 139.91204164 54.90808105 135.82876587 C53.48126966 132.95533958 51.83428143 130.21510863 50.2109375 127.44921875 C48.93040618 125.19638318 47.65181782 122.94244231 46.375 120.6875 C44.96780165 118.21129555 43.55845344 115.7363197 42.1484375 113.26171875 C41.79755066 112.64569794 41.44666382 112.02967712 41.08514404 111.39498901 C37.76448192 105.57259686 34.38844269 99.78318286 31 94 C25.09207475 83.91390135 19.2794376 73.77558207 13.50390625 63.61328125 C10.11173177 57.65443078 6.67061082 51.74415396 3.04882812 45.92138672 C2 44 2 44 2 42 C1.34 42 0.68 42 0 42 C-0.20238281 42.76828125 -0.40476562 43.5365625 -0.61328125 44.328125 C-2.56255854 49.48959164 -5.36607698 54.02092552 -8.1875 58.75 C-9.46419778 60.91367549 -10.74021671 63.07775166 -12.015625 65.2421875 C-12.67498047 66.35819336 -13.33433594 67.47419922 -14.01367188 68.62402344 C-17.18925314 74.0212626 -20.31382364 79.44760718 -23.4375 84.875 C-24.67833272 87.02867619 -25.91921862 89.18232175 -27.16015625 91.3359375 C-27.78293457 92.41713867 -28.40571289 93.49833984 -29.04736328 94.61230469 C-31.11142758 98.19331946 -33.1783705 101.77265987 -35.24609375 105.3515625 C-36.28592855 107.15185866 -37.32572267 108.95217831 -38.36550903 110.75250244 C-39.35717984 112.46915208 -40.34936163 114.1855065 -41.34155273 115.90185547 C-41.93782471 116.93455566 -42.53409668 117.96725586 -43.1484375 119.03125 C-43.67614746 119.94455078 -44.20385742 120.85785156 -44.74755859 121.79882812 C-45.53336511 123.17988691 -46.28939248 124.57878495 -47 126 C-46.0867395 125.85075073 -46.0867395 125.85075073 -45.1550293 125.69848633 C-38.46762238 124.74892642 -31.51339257 123.83440673 -25 126 C-19.47335755 130.77364536 -16.28890734 138.17049599 -14 145 C-14 145.66 -14 146.32 -14 147 C-37.1 147 -60.2 147 -84 147 C-82.56566178 143.41415445 -81.23790979 140.51181397 -79.3046875 137.24609375 C-78.76207275 136.32393066 -78.21945801 135.40176758 -77.66040039 134.45166016 C-77.07121826 133.4569873 -76.48203613 132.46231445 -75.875 131.4375 C-70.5423028 122.36781428 -65.27075973 113.26665285 -60.0625 104.125 C-58.71131614 101.75499226 -57.35971069 99.38522534 -56.0078125 97.015625 C-55.50698906 96.13776588 -55.50698906 96.13776588 -54.99604797 95.24217224 C-49.65196209 85.88060636 -44.25202827 76.55112917 -38.85888672 67.21777344 C-35.73675394 61.81329353 -32.61861096 56.40651263 -29.5 51 C-28.260426 48.85155711 -27.02084265 46.70311962 -25.78125 44.5546875 C-23.51457181 40.6258575 -21.24842761 36.69672062 -18.98303223 32.76715088 C-17.97380896 31.01658759 -16.96446164 29.26609589 -15.95507812 27.515625 C-14.6983234 25.33607835 -13.44179414 23.15640168 -12.18554688 20.9765625 C-11.03758296 18.98590329 -9.88726524 16.99659925 -8.734375 15.00878906 C-7.5027976 12.87225191 -6.28549013 10.72746082 -5.078125 8.57714844 C-4.45421875 7.47661133 -3.8303125 6.37607422 -3.1875 5.2421875 C-2.34251953 3.73567627 -2.34251953 3.73567627 -1.48046875 2.19873047 C-0.99191406 1.47314941 -0.50335938 0.74756836 0 0 Z " fill="#FCFDFE" transform="translate(111,38)"/>
<path d="M0 0 C3.25353972 2.98594221 5.34492367 6.0049615 7.50390625 9.84765625 C7.98307495 10.69361107 7.98307495 10.69361107 8.47192383 11.55665588 C9.50804668 13.38866188 10.5351683 15.22555243 11.5625 17.0625 C12.28498673 18.3427026 13.00821921 19.6224846 13.73217773 20.90185547 C15.17009403 23.44354185 16.60549144 25.98662229 18.0390625 28.53076172 C20.51634448 32.91350288 23.03142949 37.27317286 25.5625 41.625 C26.41416044 43.09369321 27.26572019 44.56244482 28.1171875 46.03125 C29.71868502 48.79189359 31.32059815 51.55229503 32.92285156 54.3125 C34.66690461 57.31773043 36.40851275 60.32436866 38.14889526 63.33172607 C38.83845815 64.52233797 39.52882046 65.71248724 40.22000122 66.90216064 C41.18380358 68.56122936 42.14470449 70.22198258 43.10546875 71.8828125 C43.66387451 72.84590332 44.22228027 73.80899414 44.79760742 74.80126953 C46 77 46 77 46 78 C42.16944228 78.38062339 38.3437223 78.60914027 34.5 78.8125 C33.42234375 78.92142578 32.3446875 79.03035156 31.234375 79.14257812 C27.76509991 79.28007988 25.28153661 79.16090653 22 78 C18.88825478 74.64812331 16.9086196 70.93092616 14.92425537 66.85787964 C13.43686622 63.86802412 11.72153036 61.01382177 10.03515625 58.1328125 C8.70866685 55.79811893 7.38408461 53.46246146 6.0625 51.125 C0.63799805 41.49260853 0.63799805 41.49260853 -5.0703125 32.02734375 C-5.50093994 31.33817871 -5.93156738 30.64901367 -6.37524414 29.93896484 C-7.46749915 28.2126494 -8.57858592 26.49828699 -9.69140625 24.78515625 C-11 22 -11 22 -10.99609375 19.63671875 C-9.54021526 15.78292275 -7.56613393 12.30656491 -5.5 8.75 C-5.08363281 8.0178125 -4.66726562 7.285625 -4.23828125 6.53125 C-1.17106331 1.17106331 -1.17106331 1.17106331 0 0 Z " fill="#8AE3B3" transform="translate(118,107)"/>
<path d="M0 0 C0.66 0 1.32 0 2 0 C2.32049316 0.57105469 2.64098633 1.14210937 2.97119141 1.73046875 C4.52044969 4.48811561 6.07229753 7.24429085 7.625 10 C8.19951904 11.01989014 8.77403809 12.03978027 9.3659668 13.09057617 C14.36715753 21.93997841 19.4870167 30.71699398 24.68017578 39.45507812 C25.24591309 40.41478516 25.81165039 41.37449219 26.39453125 42.36328125 C26.89831299 43.21188721 27.40209473 44.06049316 27.92114258 44.93481445 C29 47 29 47 29 49 C21.08 49 13.16 49 5 49 C2.87744682 45.37301382 0.75806029 41.7445255 -1.35375977 38.11132812 C-2.0726867 36.87656828 -2.79337363 35.64283141 -3.51586914 34.41015625 C-4.5556219 32.63549222 -5.58893548 30.85721414 -6.62109375 29.078125 C-7.2442749 28.00981445 -7.86745605 26.94150391 -8.50952148 25.84082031 C-10.80755084 21.46082529 -10.80755084 21.46082529 -11 19 C-10.13549805 16.80175781 -10.13549805 16.80175781 -8.76171875 14.453125 C-8.02598633 13.18662109 -8.02598633 13.18662109 -7.27539062 11.89453125 C-6.75138672 11.02183594 -6.22738281 10.14914063 -5.6875 9.25 C-4.91889648 7.91775391 -4.91889648 7.91775391 -4.13476562 6.55859375 C-1.29333758 1.73520482 -1.29333758 1.73520482 0 0 Z " fill="#F5C276" transform="translate(101,136)"/>
</svg>
